<?xml version="1.0" encoding="UTF-8" standalone="no"?><!DOCTYPE svg PUBLIC "-//W3C//DTD SVG 1.1//EN" "http://www.w3.org/Graphics/SVG/1.1/DTD/svg11.dtd"><svg width="100%" height="100%" viewBox="0 0 288 122" version="1.1" xmlns="http://www.w3.org/2000/svg" xmlns:xlink="http://www.w3.org/1999/xlink" xml:space="preserve" style="fill-rule:evenodd;clip-rule:evenodd;stroke-linejoin:round;stroke-miterlimit:1.41421;"><path d="M0.084,0.501l97.984,0l0,73.583l-97.984,0l0,-73.583Z" style="fill:#211d70;fill-rule:nonzero;"/><path d="M49.085,121.556c27.122,0 49.079,-21.982 49.079,-49.105c0,-27.117 -21.957,-49.059 -49.079,-49.059c-27.104,-0.001 -49.085,21.941 -49.085,49.058c0,27.123 21.981,49.106 49.085,49.106" style="fill:#61116a;fill-rule:nonzero;"/><g><path d="M49.082,80.791l14.963,5.048l-14.963,4.671l0,-9.719Zm-29.558,-34.298l29.558,14.342l29.923,-14.342l-29.923,10.014l-29.558,-10.014Z" style="fill:#febe10;fill-rule:nonzero;"/><path d="M19.524,40.284l29.558,14.344l29.923,-14.344l-29.923,10.014l-29.558,-10.014Z" style="fill:#febe10;fill-rule:nonzero;"/><path d="M49.082,67.808l-29.552,-10.653l0,-5.255l29.552,10.545c30,-10.44 29.923,-10.545 29.923,-10.545l0,5.254l-29.923,10.654Zm-29.558,-33.911l29.558,14.356l29.923,-14.356l-29.923,10.011l-29.558,-10.011Z" style="fill:#febe10;fill-rule:nonzero;"/><path d="M19.524,27.772l29.558,14.374l29.923,-14.374l-29.923,10.011l-29.558,-10.011Z" style="fill:#febe10;fill-rule:nonzero;"/><path d="M19.524,21.454l29.558,14.367l29.923,-14.367l-29.923,10.007l-29.558,-10.007Z" style="fill:#febe10;fill-rule:nonzero;"/><path d="M19.524,17.257l29.558,9.101l29.923,-9.101l-29.923,-10.148l-29.558,10.148Z" style="fill:#febe10;fill-rule:nonzero;"/></g><path d="M115.376,33.325l7.385,0l0,1.348l-0.496,0c-0.587,0 -1.018,0.093 -1.264,0.19c-0.208,0.143 -0.363,0.352 -0.437,0.594c-0.09,0.286 -0.149,0.798 -0.149,1.584l0,10.235c0,1.837 0.18,3.176 0.562,4.056c0.371,0.889 1.005,1.608 1.885,2.213c0.892,0.591 1.844,0.913 2.891,0.913c1.06,0 2.071,-0.346 3.017,-1c0.957,-0.615 1.64,-1.4 1.999,-2.272c0.371,-0.892 0.568,-2.24 0.568,-4.174l0,-9.83c0,-0.731 -0.054,-1.261 -0.174,-1.574c-0.149,-0.316 -0.281,-0.558 -0.532,-0.705c-0.222,-0.138 -0.604,-0.23 -1.113,-0.23l-0.533,0l0,-1.348l6.38,0l0,1.348l-0.437,0c-0.748,0 -1.233,0.166 -1.49,0.481c-0.287,0.361 -0.413,0.971 -0.413,1.887l0,10.464c0,1.927 -0.329,3.488 -0.945,4.786c-0.593,1.278 -1.461,2.259 -2.651,3.038c-1.173,0.722 -2.508,1.108 -4.063,1.108c-1.419,0.01 -2.812,-0.389 -4.01,-1.149c-1.215,-0.76 -2.106,-1.719 -2.646,-2.828c-0.586,-1.128 -0.88,-2.572 -0.88,-4.271l0,-11.147c0,-0.705 -0.023,-1.231 -0.161,-1.498c-0.08,-0.274 -0.246,-0.515 -0.473,-0.687c-0.222,-0.117 -0.587,-0.184 -1.113,-0.184l-0.706,0l0,-1.348l-0.001,0Zm22.209,3.431l5.942,0l8.755,14.466l0,-10.998c0,-0.68 -0.049,-1.137 -0.18,-1.445c-0.129,-0.27 -0.33,-0.499 -0.58,-0.663c-0.24,-0.128 -0.629,-0.173 -1.102,-0.173l-0.514,0l0,-1.187l6.426,0l0,1.187l-0.365,0c-0.568,0 -0.963,0.006 -1.16,0.112c-0.287,0.128 -0.496,0.344 -0.652,0.718c-0.125,0.337 -0.168,0.811 -0.168,1.452l0,15.825l-1.705,0l-10.569,-17.382l0,13.792c0,0.742 0.012,1.21 0.078,1.385c0.06,0.217 0.161,0.41 0.341,0.582c0.149,0.193 0.359,0.298 0.574,0.371c0.239,0.07 0.688,0.106 1.371,0.106l0,1.146l-6.493,0l0,-1.146l0.364,0c0.677,0 1.096,-0.076 1.341,-0.19c0.239,-0.118 0.425,-0.339 0.539,-0.67c0.167,-0.307 0.221,-0.842 0.221,-1.584l0,-12.236c0,-0.778 -0.023,-1.234 -0.054,-1.437c-0.072,-0.278 -0.248,-0.518 -0.49,-0.672c-0.216,-0.149 -0.706,-0.173 -1.431,-0.173l-0.49,0l0,-1.186l0.001,0Zm20.862,0l7.283,0l0,1.187l-0.568,0c-0.51,0 -0.91,0.045 -1.107,0.208c-0.252,0.128 -0.426,0.352 -0.539,0.628c-0.078,0.251 -0.137,0.805 -0.137,1.577l0,12.508c0,0.599 0.059,1.029 0.186,1.312c0.096,0.251 0.238,0.444 0.49,0.549c0.186,0.115 0.574,0.179 1.107,0.179l0.568,0l0,1.146l-7.283,0l0,-1.146l0.58,0c0.545,0 0.928,-0.064 1.131,-0.179c0.234,-0.102 0.417,-0.297 0.504,-0.537c0.096,-0.199 0.154,-0.644 0.154,-1.324l0,-12.757c0,-0.735 -0.059,-1.2 -0.154,-1.469c-0.084,-0.245 -0.267,-0.444 -0.504,-0.549c-0.203,-0.123 -0.586,-0.146 -1.131,-0.146l-0.58,0l0,-1.187l0,0Zm8.426,0l7.025,0l0,1.187l-0.525,0c-0.49,0 -0.82,0 -0.945,0.024c-0.211,0.061 -0.342,0.149 -0.443,0.301c-0.101,0.11 -0.154,0.255 -0.15,0.404c0,0.27 0.121,0.64 0.307,1.131l5.146,13.335l5.152,-13.335c0.168,-0.491 0.27,-0.861 0.27,-1.113c0,-0.291 -0.102,-0.483 -0.27,-0.6c-0.174,-0.123 -0.58,-0.146 -1.143,-0.146l-0.641,0l0,-1.187l5.973,0l0,1.187c-0.492,0 -0.904,0.006 -1.162,0.112c-0.226,0.092 -0.425,0.24 -0.58,0.429c-0.186,0.249 -0.4,0.705 -0.658,1.318l-6.5,16.248l-1.98,0l-6.504,-16.248c-0.217,-0.57 -0.371,-0.929 -0.449,-1.069c-0.156,-0.175 -0.281,-0.334 -0.443,-0.465c-0.156,-0.117 -0.342,-0.196 -0.568,-0.28c-0.209,-0.045 -0.533,-0.045 -0.91,-0.045l0,-1.188l-0.002,0Zm21.197,0l15.613,0l1.977,5.105l-1.342,0.459c-0.281,-0.851 -0.604,-1.52 -0.98,-1.988c-0.357,-0.481 -0.797,-0.894 -1.299,-1.219c-0.457,-0.315 -0.968,-0.542 -1.508,-0.669c-0.521,-0.112 -1.42,-0.176 -2.777,-0.176l-4.656,0l0,7.064l2.316,0c0.838,0 1.514,-0.149 1.957,-0.439c0.449,-0.289 0.76,-0.657 0.922,-1.095c0.107,-0.337 0.172,-0.873 0.172,-1.709l0,-0.329l1.293,0l0,8.534l-1.293,0l0,-0.702c0,-0.646 -0.035,-1.161 -0.148,-1.418c-0.091,-0.315 -0.272,-0.597 -0.521,-0.81c-0.25,-0.26 -0.537,-0.459 -0.838,-0.55c-0.316,-0.078 -0.812,-0.117 -1.543,-0.117l-2.316,0l0,6.245c0,0.67 0.018,1.047 0.078,1.197c0.076,0.133 0.188,0.243 0.322,0.318c0.107,0.046 0.484,0.087 1.102,0.087l2.902,0c1.609,0 2.861,-0.202 3.783,-0.576c0.917,-0.404 1.728,-1.016 2.369,-1.786c0.551,-0.617 1.084,-1.502 1.586,-2.646l1.227,0.482l-2.148,6.032l-16.25,0l0,-1.146l0.539,0c0.664,0 1.064,-0.036 1.227,-0.106c0.24,-0.129 0.438,-0.31 0.545,-0.604c0.096,-0.15 0.156,-0.558 0.156,-1.182l0,-13.37c0,-0.612 -0.061,-0.974 -0.205,-1.176c-0.113,-0.199 -0.322,-0.35 -0.604,-0.479c-0.168,-0.045 -0.719,-0.045 -1.658,-0.045l0,-1.186l0,0Zm20.359,0l9.953,0c1.908,0 3.32,0.212 4.297,0.599c0.969,0.404 1.688,0.968 2.232,1.675c0.525,0.772 0.795,1.603 0.795,2.602c0,1.032 -0.27,1.912 -0.771,2.67c-0.51,0.786 -1.227,1.411 -2.172,1.864c-0.971,0.416 -2.232,0.646 -3.801,0.688l5.045,6.236c0.389,0.521 0.658,0.803 0.783,0.95c0.33,0.301 0.646,0.503 1.006,0.646c0.371,0.142 0.76,0.218 1.18,0.218l0.371,0l0,1.146l-4.41,0l-7.027,-9.196l-2.459,0l0,6.01c0,0.661 0.029,1.029 0.041,1.205c0.121,0.305 0.301,0.526 0.51,0.655c0.215,0.117 0.67,0.181 1.311,0.181l0.479,0l0,1.146l-7.361,0l0,-1.146l0.67,0c0.51,0 0.85,-0.037 1.023,-0.099c0.162,-0.082 0.318,-0.187 0.443,-0.336c0.131,-0.163 0.203,-0.359 0.281,-0.625c0.018,-0.07 0.049,-0.564 0.049,-1.385l0,-12.658c0,-0.564 -0.061,-0.968 -0.174,-1.216c-0.082,-0.217 -0.237,-0.399 -0.438,-0.515c-0.232,-0.107 -0.574,-0.128 -1.053,-0.128l-0.803,0l0,-1.187m5.022,1.511l0,7.277l3.955,0c1.336,0 2.264,-0.085 2.826,-0.254c0.718,-0.196 1.357,-0.613 1.824,-1.193c0.432,-0.612 0.641,-1.36 0.641,-2.267c0,-0.787 -0.15,-1.415 -0.467,-1.976c-0.323,-0.504 -0.773,-0.914 -1.305,-1.189c-0.574,-0.27 -1.4,-0.398 -2.514,-0.398l-4.96,0l0,0Zm28.222,-1.511l1,0l1.447,5.981l-1.316,0.343c-0.783,-1.67 -1.85,-2.973 -3.184,-3.913c-1.096,-0.792 -2.285,-1.201 -3.621,-1.201c-0.795,0 -1.52,0.149 -2.172,0.432c-0.641,0.291 -1.113,0.688 -1.412,1.146c-0.304,0.409 -0.468,0.906 -0.467,1.416c0,0.416 0.096,0.824 0.348,1.237c0.264,0.389 0.635,0.748 1.113,1.067c0.537,0.328 1.352,0.634 2.494,0.971l3.627,1.04c0.42,0.103 1.084,0.36 1.922,0.741c0.826,0.374 1.502,0.763 1.957,1.192c0.449,0.401 0.826,0.91 1.088,1.503c0.258,0.585 0.402,1.205 0.402,1.929c0,1.503 -0.664,2.889 -1.988,4.019c-1.352,1.125 -3.088,1.71 -5.23,1.71c-1.088,0 -2.088,-0.152 -2.932,-0.486c-0.861,-0.312 -1.818,-0.859 -2.801,-1.695l-0.652,1.862l-0.957,0l-1.281,-6.891l1.316,-0.278c0.467,1.272 1.084,2.342 1.855,3.202c0.754,0.929 1.621,1.563 2.58,2.056c0.934,0.438 1.885,0.66 2.871,0.66c1.259,0.011 2.484,-0.408 3.473,-1.187c0.855,-0.687 1.25,-1.474 1.25,-2.389c0,-0.825 -0.316,-1.505 -0.904,-2.048c-0.598,-0.539 -1.656,-1.035 -3.236,-1.507l-3.453,-0.977c-1.922,-0.567 -3.287,-1.278 -4.111,-2.134c-0.767,-0.82 -1.188,-1.905 -1.174,-3.027c0,-0.897 0.246,-1.701 0.766,-2.443c0.516,-0.756 1.311,-1.372 2.352,-1.893c1.103,-0.501 2.302,-0.756 3.514,-0.745c1.047,0 2.076,0.169 3.035,0.555c0.67,0.257 1.322,0.625 1.891,1.084l0.59,-1.332l0,0Zm5.584,0l7.242,0l0,1.187l-0.527,0c-0.527,0 -0.904,0.045 -1.137,0.208c-0.24,0.128 -0.408,0.352 -0.521,0.628c-0.119,0.251 -0.168,0.805 -0.168,1.577l0,12.508c0,0.599 0.066,1.029 0.191,1.312c0.109,0.251 0.281,0.444 0.486,0.549c0.238,0.115 0.604,0.179 1.148,0.179l0.527,0l0,1.146l-7.242,0l0,-1.146l0.586,0c0.533,0 0.893,-0.064 1.137,-0.179c0.199,-0.105 0.354,-0.298 0.486,-0.537c0.084,-0.199 0.113,-0.644 0.113,-1.324l0,-12.757c0,-0.735 -0.029,-1.2 -0.113,-1.469c-0.133,-0.24 -0.287,-0.452 -0.486,-0.549c-0.244,-0.123 -0.604,-0.146 -1.137,-0.146l-0.586,0l0,-1.187l0.001,0Zm10.209,-0.631l0.971,0l0.143,0.631l11.867,0l0.107,-0.631l0.977,0l1.998,5.634l-1.279,0.438c-0.588,-1.514 -1.299,-2.555 -2.119,-3.175c-0.809,-0.585 -1.85,-0.907 -3.137,-0.907c-0.508,0 -0.832,0.035 -0.908,0.067c-0.127,0.022 -0.18,0.117 -0.211,0.215c-0.047,0.104 -0.076,0.434 -0.076,0.968l0,13.338c0,0.646 0.029,1.088 0.107,1.317c0.053,0.233 0.18,0.405 0.311,0.531c0.107,0.115 0.287,0.199 0.527,0.254c0.221,0.062 0.717,0.097 1.525,0.097l0,1.146l-7.385,0l0,-1.146c0.814,0 1.275,-0.036 1.473,-0.076c0.293,-0.104 0.543,-0.275 0.682,-0.518c0.119,-0.267 0.197,-0.763 0.197,-1.447l0,-13.649c0,-0.44 -0.018,-0.71 -0.078,-0.814c-0.018,-0.078 -0.107,-0.131 -0.232,-0.212c-0.107,-0.036 -0.342,-0.07 -0.695,-0.07c-1.004,0 -1.771,0.151 -2.398,0.386c-0.576,0.271 -1.139,0.71 -1.67,1.324c-0.533,0.594 -0.977,1.392 -1.342,2.372l-1.299,-0.438l1.944,-5.635l0,0Zm16.926,0.631l7.24,0l0,1.187l-0.52,0c-0.521,0 -0.916,0.045 -1.119,0.208c-0.252,0.128 -0.414,0.352 -0.539,0.628c-0.09,0.251 -0.15,0.805 -0.15,1.577l0,12.508c0,0.599 0.061,1.029 0.174,1.312c0.119,0.251 0.264,0.444 0.516,0.549c0.186,0.115 0.568,0.179 1.119,0.179l0.52,0l0,1.146l-7.24,0l0,-1.146l0.58,0c0.557,0 0.934,-0.064 1.143,-0.179c0.223,-0.11 0.395,-0.303 0.479,-0.537c0.102,-0.199 0.156,-0.644 0.156,-1.324l0,-12.757c0,-0.735 -0.055,-1.2 -0.156,-1.469c-0.09,-0.24 -0.258,-0.452 -0.479,-0.549c-0.209,-0.123 -0.586,-0.146 -1.143,-0.146l-0.58,0l0,-1.187l-0.001,0Zm-157.023,25.132l0.945,0l0.126,0.791l11.885,0l0.138,-0.791l0.97,0l2.005,6.705l-1.323,0.543c-0.592,-1.814 -1.292,-3.064 -2.101,-3.76c-0.808,-0.715 -1.837,-1.07 -3.094,-1.07c-0.538,0 -0.844,0.012 -0.951,0.078c-0.108,0.035 -0.174,0.131 -0.204,0.244c-0.048,0.127 -0.06,0.482 -0.06,1.141l0,15.729c0,0.756 0.012,1.271 0.09,1.547c0.065,0.275 0.174,0.457 0.293,0.609c0.138,0.145 0.323,0.23 0.545,0.324c0.239,0.064 0.73,0.068 1.515,0.107l0,1.338l-7.355,0l0,-1.338c0.771,-0.039 1.287,-0.043 1.442,-0.107c0.316,-0.1 0.573,-0.332 0.706,-0.635c0.132,-0.303 0.197,-0.865 0.197,-1.688l0,-16.117c0,-0.473 -0.042,-0.783 -0.065,-0.9c-0.058,-0.114 -0.153,-0.203 -0.27,-0.254c-0.084,-0.049 -0.312,-0.078 -0.676,-0.078c-1.012,0 -1.802,0.145 -2.376,0.449c-0.604,0.311 -1.18,0.832 -1.706,1.564c-0.551,0.686 -0.987,1.635 -1.358,2.816l-1.311,-0.543l1.993,-6.704l0,0Zm17.11,4.261l15.656,0l1.914,5.057l-1.322,0.469c-0.281,-0.828 -0.592,-1.504 -0.992,-1.959c-0.359,-0.479 -0.748,-0.898 -1.258,-1.232c-0.52,-0.344 -1.012,-0.562 -1.531,-0.652c-0.521,-0.121 -1.449,-0.18 -2.777,-0.18l-4.674,0l0,7.048l2.328,0c0.862,0 1.502,-0.131 1.939,-0.441c0.485,-0.307 0.795,-0.639 0.958,-1.107c0.113,-0.307 0.162,-0.869 0.162,-1.674l0,-0.314l1.316,0l0,8.523l-1.316,0l0,-0.748c0,-0.633 -0.049,-1.111 -0.139,-1.4c-0.107,-0.309 -0.285,-0.588 -0.52,-0.814c-0.252,-0.24 -0.551,-0.438 -0.85,-0.516c-0.317,-0.088 -0.797,-0.131 -1.551,-0.131l-2.328,0l0,6.227c0,0.674 0.036,1.062 0.103,1.201c0.053,0.142 0.17,0.251 0.316,0.293c0.114,0.09 0.509,0.119 1.119,0.119l2.873,0c1.603,0 2.867,-0.201 3.765,-0.584c0.914,-0.389 1.705,-0.996 2.398,-1.797c0.557,-0.609 1.066,-1.473 1.557,-2.598l1.262,0.43l-2.16,6.057l-16.248,0l0,-1.166l0.562,0c0.641,0 1.029,-0.025 1.203,-0.107c0.26,-0.102 0.465,-0.31 0.562,-0.572c0.09,-0.195 0.12,-0.584 0.12,-1.164l0,-13.4c0,-0.592 -0.03,-0.992 -0.156,-1.184c-0.132,-0.184 -0.353,-0.338 -0.622,-0.449c-0.174,-0.061 -0.712,-0.102 -1.67,-0.102l0,-1.133l0.001,0Zm20.491,0l7.391,0l0,1.131l-0.516,0c-0.592,0 -1.023,0.084 -1.262,0.213c-0.258,0.158 -0.426,0.377 -0.545,0.697c-0.084,0.232 -0.113,0.607 -0.113,1.143l0,7.361l7.277,-7.664c0.389,-0.439 0.615,-0.697 0.693,-0.84c0.049,-0.115 0.107,-0.24 0.107,-0.359c0,-0.223 -0.096,-0.338 -0.264,-0.414c-0.148,-0.096 -0.508,-0.137 -1.041,-0.137l-0.455,0l0,-1.131l6.854,0l0,1.131c-0.545,-0.006 -1.041,0.041 -1.461,0.197c-0.436,0.119 -0.789,0.277 -1.064,0.473c-0.545,0.432 -0.971,0.789 -1.191,1.018l-5.146,5.285l5.877,7.826c0.52,0.73 0.945,1.213 1.275,1.484c0.281,0.254 0.639,0.426 0.963,0.568c0.316,0.076 0.844,0.127 1.549,0.127l0,1.166l-8.186,0l0,-1.166l0.484,0c0.539,0 0.893,0 0.957,-0.025c0.18,-0.025 0.281,-0.102 0.383,-0.244c0.087,-0.085 0.133,-0.203 0.127,-0.324c0,-0.242 -0.301,-0.795 -0.959,-1.654l-4.344,-5.873l-2.436,2.48l0,3.797c0,0.598 0.053,1.02 0.186,1.238c0.148,0.234 0.346,0.395 0.586,0.498c0.215,0.082 0.777,0.107 1.664,0.107l0,1.166l-7.391,0l0,-1.166l0.562,0c0.592,0 0.957,-0.051 1.172,-0.156c0.203,-0.113 0.377,-0.322 0.486,-0.58c0.113,-0.281 0.197,-0.754 0.197,-1.443l0,-12.746c0,-0.652 -0.084,-1.143 -0.197,-1.383c-0.109,-0.24 -0.283,-0.438 -0.486,-0.488c-0.203,-0.141 -0.646,-0.182 -1.346,-0.182l-0.389,0l0,-1.131l0.002,0Zm20.078,0l5.941,0l8.744,14.422l0,-10.986c0,-0.666 -0.061,-1.119 -0.174,-1.445c-0.116,-0.268 -0.312,-0.494 -0.562,-0.646c-0.246,-0.129 -0.629,-0.213 -1.119,-0.213l-0.478,0l0,-1.131l6.391,0l0,1.131l-0.357,0c-0.568,0 -0.928,0.041 -1.168,0.148c-0.264,0.115 -0.467,0.354 -0.615,0.711c-0.162,0.338 -0.217,0.828 -0.217,1.445l0,15.84l-1.699,0l-10.551,-17.402l0,13.801c0,0.756 0.012,1.223 0.084,1.385c0.047,0.227 0.168,0.428 0.342,0.59c0.154,0.191 0.352,0.305 0.568,0.371c0.227,0.064 0.664,0.09 1.363,0.09l0,1.166l-6.492,0l0,-1.166l0.365,0c0.658,0 1.119,-0.051 1.375,-0.174c0.223,-0.123 0.383,-0.342 0.533,-0.662c0.125,-0.32 0.191,-0.844 0.191,-1.6l0,-12.239c0,-0.768 -0.035,-1.252 -0.066,-1.432c-0.07,-0.283 -0.227,-0.545 -0.467,-0.66c-0.232,-0.129 -0.699,-0.213 -1.412,-0.213l-0.52,0l0,-1.131l0,0Zm31.287,-0.326c1.771,0 3.346,0.416 4.77,1.266c1.475,0.85 2.704,2.069 3.566,3.537c0.82,1.48 1.238,3.16 1.238,5.051c0,2.953 -0.934,5.395 -2.77,7.268c-1.855,1.852 -4.213,2.785 -7.039,2.785c-3.195,0 -5.721,-1.121 -7.582,-3.371c-1.537,-1.82 -2.299,-4.01 -2.299,-6.557c0,-1.896 0.455,-3.615 1.299,-5.098c0.85,-1.504 2.047,-2.691 3.645,-3.574c1.587,-0.891 3.299,-1.307 5.172,-1.307m0,1.498c-1.424,0 -2.682,0.354 -3.682,1c-1.064,0.658 -1.885,1.615 -2.506,2.887c-0.623,1.27 -0.941,2.877 -0.941,4.734c0,1.801 0.318,3.348 0.934,4.576c0.594,1.244 1.426,2.205 2.449,2.871c1.051,0.66 2.271,1.004 3.512,0.99c1.281,0 2.424,-0.332 3.389,-0.99c0.98,-0.633 1.795,-1.662 2.459,-3.051c0.652,-1.389 0.963,-2.939 0.963,-4.648c0,-1.732 -0.311,-3.303 -0.963,-4.73c-0.539,-1.244 -1.299,-2.143 -2.191,-2.723c-0.928,-0.629 -2.034,-0.916 -3.423,-0.916m12.297,-1.172l7.404,0l0,1.131l-0.658,0c-0.545,0 -0.934,0.041 -1.131,0.182c-0.24,0.051 -0.377,0.225 -0.492,0.443c-0.107,0.176 -0.148,0.547 -0.148,1.051l0,13.404c0,0.617 0.018,0.984 0.047,1.107c0.072,0.168 0.197,0.275 0.389,0.35c0.145,0.07 0.498,0.1 1.145,0.1l1.029,0c1.209,0 2.244,-0.174 3.141,-0.533c0.86,-0.324 1.643,-0.823 2.299,-1.465c0.641,-0.658 1.256,-1.65 1.838,-2.928l1.256,0.408l-2.154,6.025l-13.963,0l0,-1.166l0.605,0c0.568,0 0.994,-0.051 1.18,-0.127c0.197,-0.09 0.357,-0.27 0.479,-0.508c0.104,-0.394 0.154,-0.801 0.148,-1.209l0,-13.081c0,-0.689 -0.078,-1.18 -0.125,-1.383c-0.119,-0.264 -0.264,-0.438 -0.461,-0.488c-0.191,-0.141 -0.617,-0.182 -1.221,-0.182l-0.605,0l0,-1.131l-0.002,0Zm27.272,-0.326c1.785,0 3.383,0.416 4.795,1.266c1.473,0.852 2.702,2.071 3.566,3.537c0.809,1.48 1.197,3.16 1.197,5.051c0,2.953 -0.904,5.395 -2.748,7.268c-1.842,1.852 -4.188,2.785 -7.043,2.785c-3.195,0 -5.721,-1.121 -7.605,-3.371c-1.49,-1.82 -2.244,-4.01 -2.244,-6.557c0,-1.896 0.43,-3.615 1.291,-5.098c0.832,-1.504 2.064,-2.691 3.633,-3.574c1.556,-0.891 3.285,-1.307 5.158,-1.307m0,1.498c-1.43,0 -2.639,0.354 -3.68,1c-1.064,0.658 -1.896,1.615 -2.508,2.887c-0.621,1.27 -0.91,2.877 -0.91,4.734c0,1.801 0.289,3.348 0.904,4.576c0.617,1.244 1.443,2.205 2.484,2.871c1.012,0.658 2.184,0.99 3.477,0.99c1.275,0 2.418,-0.332 3.404,-0.99c0.988,-0.633 1.797,-1.662 2.455,-3.051c0.652,-1.389 0.969,-2.939 0.969,-4.648c0,-1.732 -0.316,-3.303 -0.969,-4.73c-0.562,-1.244 -1.287,-2.143 -2.203,-2.723c-0.904,-0.629 -2.035,-0.916 -3.423,-0.916m27.625,-1.172l1.006,0l1.557,5.955l-1.299,0.412c-0.814,-1.896 -1.771,-3.24 -2.85,-4.033c-1.07,-0.803 -2.285,-1.203 -3.639,-1.203c-1.969,0 -3.596,0.801 -4.924,2.436c-1.33,1.658 -1.988,3.596 -1.988,5.832c0,1.621 0.348,3.121 1.035,4.461c0.658,1.361 1.574,2.406 2.688,3.094c1.137,0.715 2.352,1.066 3.639,1.066c0.82,0 1.574,-0.127 2.311,-0.453c0.771,-0.293 1.365,-0.646 1.818,-1.062c0.348,-0.316 0.576,-0.65 0.695,-1.053c0.125,-0.34 0.18,-0.879 0.174,-1.537l0,-0.932c0,-0.721 -0.102,-1.223 -0.264,-1.549c-0.174,-0.293 -0.42,-0.5 -0.725,-0.619c-0.246,-0.096 -0.891,-0.156 -1.951,-0.156l0,-1.162l7.793,0l0,1.162l-0.623,0c-0.527,0 -0.904,0.061 -1.078,0.156c-0.209,0.059 -0.352,0.273 -0.447,0.49c-0.09,0.186 -0.145,0.646 -0.145,1.305l0,6.666l-1.371,0l-0.717,-1.682c-0.754,0.552 -1.588,0.986 -2.473,1.287c-1.322,0.467 -2.604,0.703 -3.895,0.703c-2.592,0 -4.807,-0.949 -6.65,-2.846c-1.873,-1.916 -2.77,-4.27 -2.77,-7.107c0,-2.807 0.934,-5.193 2.789,-7.1c1.879,-1.922 4.135,-2.857 6.75,-2.857c0.65,-0.005 1.298,0.059 1.934,0.193c0.601,0.12 1.188,0.301 1.752,0.539c0.377,0.176 0.838,0.445 1.377,0.861l0.491,-1.267l0,0Zm7.199,0l7.272,0l0,1.131l-0.539,0c-0.543,0 -0.914,0.084 -1.143,0.227c-0.25,0.145 -0.4,0.363 -0.539,0.633c-0.088,0.283 -0.137,0.816 -0.137,1.605l0,12.502c0,0.611 0.049,1.035 0.162,1.309c0.113,0.242 0.305,0.434 0.514,0.547c0.197,0.105 0.568,0.156 1.143,0.156l0.539,0l0,1.166l-7.271,0l0,-1.166l0.562,0c0.545,0 0.947,-0.051 1.156,-0.174c0.215,-0.105 0.377,-0.287 0.49,-0.521c0.084,-0.219 0.139,-0.676 0.139,-1.316l0,-12.784c0,-0.709 -0.055,-1.197 -0.139,-1.451c-0.113,-0.258 -0.275,-0.451 -0.49,-0.551c-0.209,-0.141 -0.611,-0.182 -1.156,-0.182l-0.562,0l0,-1.131l-0.001,0Zm-165.352,25.26l6.122,0l5.619,18.002l5.53,-18.002l5.871,0l0,1.348l-0.509,0c-0.587,0 -1.006,0.059 -1.203,0.166c-0.216,0.148 -0.378,0.362 -0.461,0.611c-0.132,0.33 -0.18,0.789 -0.18,1.473l0,15.057c0,0.949 0.03,1.564 0.138,1.846c0.078,0.297 0.239,0.516 0.467,0.65c0.222,0.154 0.629,0.221 1.239,0.221l0.509,0l0,1.371l-7.277,0l0,-1.371l0.502,0c0.449,0 0.803,-0.035 1.03,-0.146c0.173,-0.074 0.377,-0.209 0.521,-0.393c0.144,-0.23 0.209,-0.455 0.215,-0.664c0.042,-0.436 0.072,-0.783 0.072,-1.023l0,-16.779l-6.242,20.375l-1.454,0l-6.254,-20.078l0,16.166c0,0.797 0.048,1.355 0.168,1.662c0.125,0.262 0.305,0.502 0.55,0.641c0.258,0.172 0.742,0.238 1.383,0.238l0.455,0l0,1.371l-6.811,0l0,-1.371l0.389,0c0.683,0 1.138,-0.092 1.406,-0.238c0.288,-0.174 0.479,-0.414 0.599,-0.707c0.114,-0.299 0.186,-0.879 0.186,-1.771l0,-14.893c0,-0.834 -0.048,-1.395 -0.149,-1.637c-0.086,-0.251 -0.266,-0.46 -0.503,-0.58c-0.239,-0.139 -0.628,-0.197 -1.251,-0.197l-0.676,0l0,-1.348l-0.001,0Zm33.196,3.447l2.262,0l5.992,16.113c0.293,0.803 0.604,1.35 0.867,1.631c0.311,0.258 0.73,0.408 1.238,0.408l0.299,0l0,1.143l-6.863,0l0,-1.143c0.238,-0.037 0.443,-0.037 0.664,-0.037c0.418,0 0.73,-0.072 0.873,-0.156c0.252,-0.182 0.383,-0.383 0.383,-0.652c0,-0.188 -0.131,-0.689 -0.383,-1.451l-1.279,-3.721l-6.961,0l-1.543,4.186c-0.132,0.422 -0.216,0.725 -0.216,0.904c0,0.16 0.065,0.346 0.161,0.479c0.085,0.142 0.219,0.248 0.377,0.299c0.174,0.096 0.418,0.119 0.826,0.119c0.221,0 0.438,0 0.586,0.031l0,1.143l-5.727,0l0,-1.143c0.562,0 0.922,-0.055 1.161,-0.162c0.257,-0.1 0.437,-0.287 0.634,-0.527c0.15,-0.238 0.396,-0.721 0.694,-1.49l5.955,-15.974m-2.447,10.758l5.967,0l-2.98,-8.299l-2.987,8.299l0,0Zm14.554,-10.758l9.951,0c1.893,0 3.305,0.168 4.297,0.568c0.965,0.414 1.725,0.977 2.227,1.725c0.504,0.73 0.785,1.6 0.785,2.578c0,0.988 -0.281,1.887 -0.768,2.682c-0.484,0.766 -1.227,1.377 -2.195,1.838c-0.934,0.461 -2.189,0.666 -3.764,0.691l5.025,6.238c0.414,0.535 0.66,0.826 0.809,0.922c0.33,0.326 0.658,0.531 0.994,0.67c0.365,0.131 0.736,0.24 1.184,0.24l0.359,0l0,1.143l-4.355,0l-7.033,-9.213l-2.482,0l0,6.018c0,0.645 0.018,1.047 0.053,1.207c0.096,0.301 0.281,0.512 0.479,0.65c0.234,0.086 0.66,0.195 1.293,0.195l0.516,0l0,1.143l-7.373,0l0,-1.143l0.67,0c0.484,0 0.826,-0.037 0.994,-0.109c0.174,-0.053 0.328,-0.186 0.455,-0.34c0.137,-0.156 0.238,-0.357 0.299,-0.633c0.023,-0.096 0.023,-0.564 0.023,-1.373l0,-12.673c0,-0.582 -0.041,-0.953 -0.15,-1.197c-0.119,-0.246 -0.281,-0.443 -0.461,-0.539c-0.209,-0.09 -0.555,-0.131 -1.041,-0.131l-0.789,0l0,-1.157m5.031,1.502l0,7.301l3.932,0c1.377,0 2.268,-0.121 2.836,-0.305c0.76,-0.186 1.371,-0.598 1.795,-1.197c0.449,-0.576 0.684,-1.322 0.684,-2.244c0,-0.762 -0.162,-1.441 -0.467,-1.969c-0.348,-0.529 -0.76,-0.928 -1.311,-1.188c-0.594,-0.26 -1.389,-0.398 -2.514,-0.398l-4.955,0l0,0Zm22.477,-1.502l2.232,0l5.992,16.113c0.305,0.803 0.592,1.35 0.896,1.631c0.33,0.258 0.713,0.408 1.209,0.408l0.293,0l0,1.143l-6.834,0l0,-1.143c0.197,-0.037 0.432,-0.037 0.635,-0.037c0.443,0 0.73,-0.072 0.885,-0.156c0.223,-0.182 0.377,-0.383 0.377,-0.652c0,-0.188 -0.119,-0.689 -0.377,-1.451l-1.279,-3.721l-6.979,0l-1.514,4.186c-0.162,0.422 -0.24,0.725 -0.24,0.904c0,0.16 0.078,0.346 0.174,0.479c0.091,0.142 0.229,0.248 0.389,0.299c0.168,0.096 0.438,0.119 0.797,0.119c0.25,0 0.441,0 0.592,0.031l0,1.143l-5.715,0l0,-1.143c0.539,0 0.934,-0.055 1.172,-0.162c0.234,-0.1 0.443,-0.287 0.6,-0.527c0.16,-0.238 0.418,-0.721 0.711,-1.49l5.984,-15.974m-2.465,10.758l5.949,0l-2.939,-8.299l-3.01,8.299l0,0Z" style="fill:#fff;fill-rule:nonzero;"/><g><path d="M174.941,4.902c0.705,-1.125 0.035,-0.708 0.035,-0.708c-0.234,0.57 -0.455,0.156 -0.455,0.156c-0.777,-0.688 0.861,-3.422 0.861,-3.422c0.252,-0.531 -0.311,0 -0.311,0c-2.059,3.36 -1.203,4.137 -1.203,4.137c0.444,0.93 1.073,-0.163 1.073,-0.163m112.502,14.285c0,0 -0.801,-10.838 -1.453,-14.224c0,0 -0.229,-0.996 0.328,-0.333l0.76,0.98c0,0 0.205,-0.98 -0.352,-1.819c0,0 -0.678,-1.413 -0.773,-1.897c0,0 -0.4,-1.594 -0.777,-0.862c0,0 -0.82,1.409 -0.484,1.946l1.238,11.181c0,0 0.969,5.92 0.82,7.627c0,0 0.759,-0.976 0.693,-2.599m-5.996,-14.939c-0.604,0.977 -4.943,4.397 -5.99,5.187c0.682,-0.425 2.471,-1.348 2.471,-1.348c1.551,-0.802 3.891,-3.502 3.891,-3.502c0.82,0.763 1.023,0.178 1.023,0.178c0.533,-0.793 -0.574,-1.375 -0.574,-1.375c0,0 0.348,-0.718 0.047,-2.155c-0.316,-1.412 -1.705,0.067 -1.705,0.067c-1.047,0.997 -0.43,1.872 -0.43,1.872l1.267,1.076Zm-0.09,-2.494c0.479,-0.073 0.479,1.29 0.479,1.29l-0.879,-0.664c-0.479,-0.488 0.4,-0.626 0.4,-0.626m-6.127,7.881l0.227,-0.199c-0.09,0.074 -0.198,0.135 -0.227,0.199m6.336,-0.617c0.377,-0.812 -0.107,-0.328 -0.107,-0.328l-1.34,2.445c-0.539,1.116 0.348,1.658 0.348,1.658c1.059,0.061 0.992,-1.375 0.992,-1.375c-0.264,0.505 -0.699,0.272 -0.699,0.272c-0.408,-0.12 0,-0.858 0,-0.858l0.806,-1.814Zm1.006,6.397c-1.754,-1.243 -2.992,1.769 -2.992,1.769c-0.85,2.427 1.377,2.576 1.377,2.576c0.783,-0.125 2.297,-0.021 2.297,-0.021c1.012,0.515 0.258,1.556 0.258,1.556c-1.197,1.812 -3.932,3.83 -3.932,3.83c-2.016,1.658 -4.039,0.923 -4.039,0.923c-3.111,-1.554 -1.186,-5.102 -1.186,-5.102c1.113,-0.08 1.809,-0.815 1.809,-0.815c1.303,-2.871 0.07,-4.495 0.07,-4.495c-0.699,-1.152 -0.975,1.336 -0.975,1.336c0.012,0.419 0.609,0.9 0.609,0.9c0.348,0.845 -1.676,0.95 -1.676,0.95c-1.447,-0.19 -1.154,-1.935 -1.154,-1.935c0.139,-1.124 -0.91,-0.275 -0.91,-0.275c-2.555,2.143 -3.549,1.988 -3.549,1.988c0.031,-0.787 -1.395,-1.973 -1.395,-1.973c-1.98,-1.384 -3.248,1.652 -3.248,1.652c-0.814,2.433 1.082,2.777 1.082,2.777c1.359,0.504 3.125,-0.196 3.125,-0.196l0.029,0.597c-1.945,2.708 -5.129,4.219 -5.129,4.219c-3.758,1.891 -4.818,-1.277 -4.818,-1.277c-0.85,-2.155 1.336,-4.005 1.336,-4.005c1.107,-0.921 1.137,-2.846 1.107,-3.631c0.018,-0.073 0.018,-0.187 0.018,-0.431c0.012,-1.031 -0.951,-2.189 -0.951,-2.189c-0.852,-0.903 -0.287,-1.038 -0.287,-1.038c0.824,0.331 0.58,-0.26 0.58,-0.26l-1.893,-1.652c-0.639,-0.628 -0.639,-0.058 -0.639,-0.058l-0.031,1.821l0.473,0.582c0.139,0.635 1.832,3.436 1.832,3.436c0.443,0.918 -0.359,1.439 -0.359,1.439c-1.549,1.927 -7.098,4.996 -7.098,4.996c-2.49,1.676 -9.467,4.408 -9.467,4.408c0.58,0.01 6.9,-1.313 6.9,-1.313c0.615,-0.163 1.771,-0.72 1.771,-0.72c1.477,-0.792 6.307,-3.739 6.307,-3.739c-1.717,5.058 2.047,6.23 2.047,6.23c4.004,0.74 8.188,-4.535 8.188,-4.535c0.812,-0.914 0.717,-2.792 0.717,-2.792l0.27,-0.42c0.461,0 1.783,-1.194 1.783,-1.194c0.498,-0.546 1.377,-0.825 1.377,-0.825c0,2.304 1.533,2.439 1.533,2.439c-0.443,0.713 -0.605,3.033 -0.605,3.033c-0.131,4.045 3.178,4.122 3.178,4.122c3.43,0.187 7.402,-5.114 7.402,-5.114c0.762,-0.859 0.85,-3.417 0.85,-3.417c0.078,-2.741 -1.992,-4.157 -1.992,-4.157m-0.119,2.412l-1.354,0.064c0,0 -0.621,-0.254 0.096,-0.69c0,0 0.623,-0.349 1.377,0.31c0,0 0.437,0.214 -0.119,0.316m-17.219,1.275c0,0 -0.418,-0.316 0.318,-0.594c0,0 0.688,-0.423 1.461,0.548l-1.779,0.046Z" style="fill:#fff;fill-rule:nonzero;"/><path d="M249.005,18.327c1.777,0.248 3.045,-2.111 3.045,-2.111c0.24,0.646 1.227,1.076 1.227,1.076c2.168,0.898 2.592,-1.394 2.592,-1.394c0.545,-2.084 -0.736,-2.702 -0.736,-2.702c-0.838,1.406 -0.256,1.813 -0.256,1.813c0.418,0.628 -0.348,0.354 -0.348,0.354c-2.262,-0.02 -1.705,-1.309 -1.705,-1.309c0.352,-0.812 -0.229,-0.404 -0.229,-0.404c-0.951,1.957 -1.812,2.362 -1.812,2.362c-2.723,1.381 -2.633,-1.101 -2.633,-1.101c0.479,-1.108 -0.193,-0.766 -0.193,-0.766c-2.584,2.622 -5.984,2.873 -5.984,2.873c-3.709,0.364 -3.74,-2.093 -3.74,-2.093c0.186,-1.216 -0.609,-0.45 -0.609,-0.45c-1.73,2.839 -4.129,2.693 -4.129,2.693c-2.49,-0.218 -2.34,-2.896 -2.34,-2.896c0.502,-2.626 -1.76,-2.098 -1.76,-2.098c-3.621,1.213 -4.482,5.076 -4.482,5.076c-1.072,3.429 3.955,3.208 3.955,3.208c1.168,0.154 1.191,1.07 1.191,1.07c-1.203,1.318 -5.057,3.012 -5.057,3.012c-4.83,2.246 -7.596,-0.545 -7.596,-0.545c-3.422,-2.289 -0.586,-8.432 -0.586,-8.432c0.383,-1.245 -0.449,0 -0.449,0c-0.861,1.167 -1.363,4.409 -1.363,4.409c-1.426,7.351 5.535,7.632 5.535,7.632c4.291,0.114 9.492,-4.188 9.492,-4.188c2.297,-3.485 -0.275,-4.83 -0.275,-4.83c-1.264,-0.077 -3.203,-0.693 -3.203,-0.693c-2.244,-1.039 2.137,-3.462 2.137,-3.462c1.328,-0.953 1.693,0.793 1.693,0.793c-0.316,2.09 1.365,3.376 1.365,3.376c2.752,1.996 5.111,-1.544 5.111,-1.544c0.467,-0.542 0.598,-0.304 0.598,-0.304c0.904,2.581 3.508,2.253 3.508,2.253c2.68,0.118 6.109,-2.435 6.109,-2.435c0.138,1.888 1.927,1.757 1.927,1.757m24.524,-7.598c0,0 -0.557,0.91 -0.795,1.771c0,0 1.018,0.606 1.555,1.094c0,0 0.928,-0.239 1.078,-1.62c0,0 -0.612,-0.838 -1.838,-1.245m-9.713,1.956c0,0 1,0.597 1.527,1.118c0,0 0.945,-0.241 1.07,-1.632c0,0 -0.586,-0.883 -1.807,-1.237c0.001,-0.001 -0.587,0.85 -0.79,1.751m6.9,12.331c0,0 0.76,-1.122 0.939,-1.492c0,0 -0.85,-0.844 -1.836,-1.163l-1.006,1.692c0,0 1.346,0.603 1.568,0.962l0.023,0.34l-0.85,1.409c0,0 1.633,0.95 1.824,1.306c0,0 0.951,-1.306 0.951,-1.71l-1.406,-0.959l-0.207,-0.385l0,0Zm4.741,-1.513c0,0 -0.09,0.422 0.521,-0.067c0,0 1.662,-1.168 3.326,-1.734c0,0 0.91,-1.461 -0.059,-0.944l-3.496,1.897l-0.292,0.848l0,0Zm-7.014,-14.737c0.066,-0.211 0.443,-0.377 0.443,-0.377l2.398,0l-2.801,1.97c2.998,-0.342 3.945,-2.389 3.945,-2.389c1.082,-1.119 0.305,-1.221 0.305,-1.221l-2.664,-0.291c-1.029,-0.085 -1.094,0.264 -1.094,0.264l-0.736,1.339c-0.491,0.705 0.204,0.705 0.204,0.705m4.619,-5.986c1.107,0.058 1.227,2.046 1.227,2.046c0.02,0.822 0.414,0.558 0.414,0.558c0.27,-0.371 0.371,-1.481 0.371,-1.481c0.096,-1.787 0.412,-2.19 0.412,-2.19c0.51,-0.667 1.232,0.85 1.232,0.85c0.402,-0.763 -0.316,-1.698 -0.316,-1.698c-1.299,-1.719 -1.502,1.388 -1.502,1.388c-0.055,1.504 -0.354,1.39 -0.354,1.39c-0.449,-2.442 -1.807,-2.411 -1.807,-2.411c-1.084,-0.438 -0.832,0.843 -0.832,0.843c-0.156,0.742 1.155,0.705 1.155,0.705m-36.457,-0.051c1.18,0.037 1.293,2.003 1.293,2.003c0,0.886 0.449,0.558 0.449,0.558c0.311,-0.339 0.418,-1.465 0.418,-1.465c0.09,-1.786 0.461,-2.187 0.461,-2.187c0.545,-0.675 1.316,0.824 1.316,0.824c0.443,-0.748 -0.336,-1.671 -0.336,-1.671c-1.436,-1.706 -1.598,1.364 -1.598,1.364c-0.084,1.529 -0.412,1.418 -0.412,1.418c-0.508,-2.451 -1.939,-2.406 -1.939,-2.406c-1.191,-0.434 -0.939,0.824 -0.939,0.824c-0.162,0.744 1.287,0.738 1.287,0.738m31.568,-0.872c0,0 0.131,0.126 0.527,-0.655c0,0 0.377,-0.935 -0.838,-0.335c0,0 -7.277,3.613 -7.512,3.806c0,0 -0.412,0.536 -0.27,1.097c0.002,0 6.484,-3.431 8.093,-3.913m-5.297,4.453c0,0 -3.045,3.324 -1.357,4.204c0,0 1.34,-0.046 1.018,-1.222c0,0 -0.246,-0.283 -0.336,0.22c0,0 -0.934,0.546 -0.67,-0.453c0,-0.001 1.287,-2.115 1.345,-2.749m-9.06,-3.543c0,0 0.342,0.07 0.652,-0.052c0,0 0.898,-0.316 1.838,-0.036c0,0 0.293,0.053 -0.229,0.419l-2.398,1.487c0,0 -0.107,0.336 0.52,0.042c0,0 0.977,-0.483 1.617,-0.483c0,0 0.76,-0.132 1.65,-1.561c0,0 1.82,-1.758 0.293,-1.752c0,0 -3.016,-0.687 -3.523,0.202c0,0 -0.983,1.476 -0.42,1.734m-8.557,7.797c1.92,-0.096 2.039,-2.666 2.039,-2.666c0.211,-1.088 -0.537,-0.111 -0.537,-0.111c-0.324,0.902 -0.617,0.997 -0.617,0.997c-1.957,-0.284 -0.586,-3.349 -0.586,-3.349c1.006,-1.63 1.777,-4.388 1.777,-4.388c0.114,-0.394 -0.335,0.184 -0.335,0.184c-1.479,2.059 -2.836,6.556 -2.836,6.556c-0.409,2.493 1.095,2.777 1.095,2.777m5.625,1.152c0,0 0.562,0.129 2.207,-2.012c0,0 1.33,-2.298 -0.58,-2.014c0,0 -1.131,0.781 -0.783,1.152c0,0 0.203,0.077 0.359,-0.103c0,0 0.98,-0.198 0.238,1.023l-1.441,1.954Zm-23.537,-6.946c0,0 0.502,0.104 2.178,-2.035c0,0 1.322,-2.258 -0.604,-2c0,0 -1.119,0.772 -0.779,1.179c0,0 0.293,-0.074 0.461,-0.264c0,0 1.238,-0.536 0.203,1.287l-1.459,1.833Zm25.811,14.153c0,0 -3.775,1.532 -4.625,2.023c0,0 -0.689,0.79 -0.307,1.182c0,0 3.873,-1.819 4.639,-2.199c0,0 0.342,0.039 0.617,-0.456c0,0 0.262,-1.19 -0.324,-0.55m-7.965,1.938c-1.896,2.196 -1.221,3.576 -1.221,3.576c0.754,1.033 1.287,-0.07 1.287,-0.07c0.711,-1.119 -0.014,-0.781 -0.014,-0.781c-0.268,0.495 -0.543,0.235 -0.543,0.235c-0.551,-0.603 0.49,-2.767 0.49,-2.767c0.431,-0.597 0.001,-0.193 0.001,-0.193m-9.904,-12.892l2.447,0.012l-2.334,1.618c0,0 -0.299,0.537 0.617,0.163c0,0 1.105,-0.539 1.633,-0.444l1.113,-1.254c0,0 1.771,-1.936 0.139,-1.957l-2.945,-0.061c0,0 -1.148,1 -1.113,2c-0.001,-0.001 0.048,0.262 0.443,-0.077m-8.924,1.581c0,0 1.209,0.851 1.383,1.063c0,0 0.688,-0.522 0.957,-1.324c0,0 -0.137,-0.552 0.527,-0.093l1.514,0.938l0.855,-1.582c0,0 -1.143,-1.126 -1.836,-1.287c0,0 -0.473,-0.156 -1.125,1.361l-1.455,-0.938c0,0 -0.275,-0.312 -0.707,0.618c0,0.002 -0.861,0.831 -0.113,1.244" style="fill:#fff;fill-rule:nonzero;"/><path d="M235.779,23.641c0,0 0.688,-0.536 0.963,-1.372c0,0 -0.125,-0.511 0.527,-0.07l1.508,0.946l0.844,-1.553c0,0 -1.119,-1.14 -1.783,-1.318c0,0 -0.502,-0.144 -1.172,1.355l-1.461,-0.941c0,0 -0.252,-0.292 -0.701,0.649c0,0 -0.838,0.818 -0.082,1.204c-0.001,0 1.195,0.874 1.357,1.1m-3.514,1.206c0,0 -0.723,1.719 -1.111,1.376l-1.49,-0.973c0,0 -0.24,-0.275 -0.672,0.66c0,0 -0.861,0.819 -0.096,1.231c0,0 1.174,0.857 1.348,1.056c0,0 0.699,-0.523 0.963,-1.351c0,0 -0.119,-0.509 0.527,-0.064l1.52,0.962l0.85,-1.596c-0.001,0 -1.138,-1.132 -1.839,-1.301m-26.228,-0.793c0,0 -0.719,1.685 -1.145,1.348l-1.479,-0.907c0,0 -0.221,-0.313 -0.664,0.603c0,0 -0.861,0.855 -0.09,1.242c0,0 1.156,0.83 1.354,1.053c0,0 0.682,-0.53 0.957,-1.348c0,0 -0.137,-0.529 0.49,-0.043l1.551,0.932l0.844,-1.578c0,-0.001 -1.143,-1.147 -1.818,-1.302m2.339,-11.751c0,0 1.232,0.781 1.406,0.993c0,0 0.658,-0.564 0.891,-1.376c0,0 -0.143,-0.523 0.521,-0.135l1.555,0.901l0.742,-1.624c0,0 -1.16,-1.063 -1.867,-1.195c0,0 -0.633,1.713 -1.059,1.41l-1.531,-0.877c0,0 -0.234,-0.272 -0.623,0.666c0.001,0 -0.814,0.881 -0.035,1.237m27.624,14.404l-0.383,0.637c0,0 -0.191,0.687 0.574,0.178c0,0 3,-1.63 4.441,-2.139c0,0 0.18,-0.34 0.113,-0.871c0.001,0 -2.679,1.045 -4.745,2.195m-25.776,-0.224l-0.357,0.631c0,0 -0.217,0.702 0.574,0.162c0,0 2.975,-1.635 4.439,-2.117c0,0 0.145,-0.354 0.096,-0.869c0,0 -2.65,1.029 -4.752,2.193m8.768,-23.564c0,0 0.533,-0.356 1.395,-0.337l1.096,0.104l-2.568,2.078c0,0 1.742,-0.665 2.609,-0.797c0,0 3.479,-3.1 1.377,-3.232l-2.65,-0.058c0,0 -0.652,-0.094 -1.041,0.6c-0.002,-0.001 -1.433,2.066 -0.218,1.642m-30.789,-0.203c0,0 0.453,-0.336 1.273,-0.319l1,0.111l-2.357,2.077c0,0 1.561,-0.682 2.393,-0.805c0,0 3.131,-3.073 1.234,-3.239l-2.438,-0.059c0,0 -0.568,-0.097 -0.939,0.614c0,0 -1.274,2.058 -0.166,1.62m33.621,5.253c-0.82,0 -2.496,5.892 -2.496,5.892c-0.586,1.944 0.502,3.687 0.502,3.687c1.365,1.784 2.568,-2.187 2.568,-2.187c0.258,-1.383 -0.605,-0.491 -0.605,-0.491c-0.418,1.45 -1.137,1.064 -1.137,1.064c-1.818,-1.017 0.701,-6.171 0.701,-6.171c0.598,-1.288 0.467,-1.794 0.467,-1.794m0.664,12.338c0,0 -0.191,-1.032 -1.168,-0.263c0,0 -0.969,0.901 -0.102,0.907c0,0 0.922,-0.31 0.246,0.763l-1.568,2.136l0.676,-0.481c0,0 2.191,-2.094 1.916,-3.062m-12.526,-17.264c0,0 0.682,0.398 1.227,0.322c0,0 0.586,0.681 0.676,2.359c0,0 0.969,-0.839 0.809,-3.512c0,0 0.371,-1.559 1.154,0.696c0,0 0.562,-1.409 -0.336,-2.084c0,0 -1.1,-0.811 -1.166,1.575c0,0 -0.055,1.357 -0.197,1.878c0,0 -0.748,-3.003 -2.221,-2.641c0,0.001 -0.612,1.049 0.054,1.407m-11.707,19.944c0,0 -1.209,-0.787 -1.287,1.605c0,0 -0.041,1.33 -0.209,1.842c0,0 -0.82,-3 -2.369,-2.587c0,0 -0.689,1.037 0.029,1.376c0,0 0.754,0.383 1.311,0.328c0,0 0.635,0.681 0.73,2.354c0,0 1.047,-0.845 0.887,-3.494c0,0 0.406,-1.568 1.262,0.672c0,0 0.574,-1.427 -0.354,-2.096" style="fill:#fff;fill-rule:nonzero;"/><path d="M211.625,20.283c0,0 2.029,-0.631 1.371,-4.012c0,0 -0.641,-1.35 -0.934,-0.635c0,0 -0.502,1.284 0.018,1.846c0,0 0.748,0.801 -0.838,0.938c0,0 -1.67,0.297 -1.975,-1.158c0,0 0.234,-1.804 -0.891,-0.687c0,0 -2.006,3.666 -4.723,2.184c0,0 -2.531,-1.287 -4.703,-4.084l-7.541,-7.08c0,0 -0.359,-0.654 0.342,-0.874c0,0 9.467,-4.801 13.416,-4.572c0,0 1.562,0.028 0.264,1.627c0,0 -2.023,2.972 -1.658,3.941c0,0 0.168,0.135 0.742,-1.098c0,0 1.162,-2.611 1.91,-3.45c0,0 1.896,-3.348 -1.688,-2.81c0,0 -6.016,0.81 -13.006,4.651c0,0 -0.639,0.334 -0.969,1.771l-0.252,1.621c0,0 0.012,0.695 0.838,1.563c0,0 5.932,6.363 6.141,7.997c0,0 -0.18,1.93 -2.369,1.208c0,0 -0.893,-0.26 -1.119,-1.673c0,0 -0.02,-1.554 -0.707,-0.668c0,0 -1.818,1.725 -2.688,2.081c0,0 -0.334,-0.099 -0.598,-0.564c0,0 -1.449,-2.742 -2.975,-1.333c0,0 -2.795,2.725 -0.383,4.342c0,0 1.801,0.72 3.076,0.083c0,0 0.545,0.151 -0.096,0.987c0,0 -2.844,3.483 -5.848,4.058c0,0 -5.129,0.86 -4.094,-4.625l0.713,-2.099c0,0 0.209,-1.023 -0.365,-0.236c0,0 -2.662,4.686 -0.168,7.961c0,0 2.143,2.157 4.932,0.54c0,0 6.236,-2.923 5.961,-7.033c0,0 1.873,-1.357 2.615,-2.255c0,0 0.342,2.319 1.975,2.476c0,0 4.045,-0.157 2.4,-4.636l-0.748,-1.507l3.752,3.754c0,0 1.908,2.983 4.674,2.123c0,0 2.018,-0.588 2.658,-2.253c0,0 0.357,-0.836 0.543,0.067c0.002,0 0.703,2.681 2.995,1.523m-24.907,-0.851c1.16,-1.266 2.105,0.178 2.105,0.178c-1.484,0.245 -2.105,-0.178 -2.105,-0.178" style="fill:#fff;fill-rule:nonzero;"/><path d="M205.234,9.977c-2.273,3.818 -1.305,4.731 -1.305,4.731c0.484,1.038 1.154,-0.202 1.154,-0.202c0.779,-1.312 0.037,-0.824 0.037,-0.824c-0.162,0.588 -0.568,0.444 -0.568,0.444c-0.898,-0.818 1.01,-4.158 1.01,-4.158c0.27,-0.561 -0.328,0.009 -0.328,0.009m-21.233,-5.075c0.742,-1.125 0.059,-0.708 0.059,-0.708c-0.221,0.57 -0.449,0.156 -0.449,0.156c-0.789,-0.688 0.852,-3.422 0.852,-3.422c0.268,-0.531 -0.295,0 -0.295,0c-2.059,3.36 -1.189,4.137 -1.189,4.137c0.429,0.93 1.022,-0.163 1.022,-0.163m15.475,5.567l-4.254,-1.222c-0.988,-0.267 -0.635,0.158 -0.635,0.158c0.328,-0.088 0.879,0.724 0.879,0.724l3.645,1.007c1.139,0.386 1.246,-0.857 1.246,-0.857c1.012,-1.397 -1.951,-1.611 -1.951,-1.611c-1.348,-0.433 -0.76,-0.859 -0.76,-0.859c0.783,-0.658 1.479,-0.088 1.479,-0.088c0.436,0.451 0.633,-0.125 0.633,-0.125c0.539,-0.652 -0.406,-0.745 -0.406,-0.745c-2.479,0.041 -2.568,1.426 -2.568,1.426c-0.107,1.219 2.783,1.479 2.783,1.479c0.796,0.713 -0.091,0.713 -0.091,0.713m-34.459,0.525l-3.799,-1.986c-0.893,-0.465 -0.635,0 -0.635,0c0.348,0 0.699,0.857 0.699,0.857l3.227,1.683c1.059,0.621 1.377,-0.555 1.377,-0.555c1.25,-1.128 -1.533,-1.933 -1.533,-1.933c-1.197,-0.678 -0.562,-0.971 -0.562,-0.971c0.898,-0.461 1.449,0.211 1.449,0.211c0.305,0.524 0.641,0 0.641,0c0.604,-0.512 -0.275,-0.792 -0.275,-0.792c-2.34,-0.44 -2.748,0.874 -2.748,0.874c-0.311,1.128 2.412,1.933 2.412,1.933c0.591,0.848 -0.253,0.679 -0.253,0.679m24.184,1.725c-0.908,1.275 -0.479,1.643 -0.479,1.643c0.365,0.184 1.264,0.86 1.264,0.86c0.49,0.414 0.908,-0.422 0.908,-0.422c0.762,-1.052 0.186,-1.444 0.186,-1.444l-1.496,-0.901c-0.311,-0.143 -0.383,0.264 -0.383,0.264m-3.448,-3.848l1.023,0.73c0,0 0.504,0.112 -0.131,0.833c0,0 -3.238,3.002 -3.758,3.318c0,0 0.711,-0.16 1.406,-0.745c0,0 2.381,-1.321 3.129,-2.798c0,0 0.455,0.108 0.58,0.401c0,0 0.504,0.056 0.521,-0.781c0,0 -0.197,-0.416 -0.641,-0.729c0,0 -0.191,-0.175 0.049,-0.794c0,0 -0.049,-2.947 -1.061,-2.166c0.003,0.001 -2.367,1.906 -1.117,2.731m0.983,-1.602c0.461,-0.199 0.479,1.36 0.479,1.36l-0.928,-0.646c-0.401,-0.378 0.449,-0.714 0.449,-0.714m-8.797,12.697c0,0 2.807,-1.154 2.752,-3.058c0,0 0.479,-3.657 -1.047,-12.083c0,0 -0.293,-0.682 0.227,-0.125l0.785,0.92c0,0 0.514,0.296 -0.252,-1.608c0,0 -1.365,-4.021 -1.705,-3.426c0,0 -0.617,1.571 -0.49,2.041c0,0 0.172,0.105 0.197,1.032l1.496,12.239c0,0 0.754,1.287 -3.209,2.45c0,0 -0.473,-3.315 -3.291,-2.415c0,0 -1.377,0.454 -1.537,2.488c0,0 -0.371,2.035 1.436,2.219c0,0 1.85,0.202 2.746,-0.07c0,0 0.408,0.692 -0.299,1.315c0,0 -3.537,3.726 -6.744,4.074c0,0 -2.729,0.806 -3.184,-2.485c0,0 -0.125,-2.527 0.922,-3.869c0,0 0.525,-1.827 -0.162,-0.781c0,0 -2.812,4.427 -0.76,7.974c0,0 1.658,2.75 5.422,0.522c0,0 4.805,-2.92 5.26,-4.894c0,0 0.498,-1.529 0.396,-1.991c0,0 0.172,-0.193 1.041,-0.469m-4.926,-1.435c0.994,-1.397 2.107,0.102 2.107,0.102c-0.814,0.263 -2.107,-0.102 -2.107,-0.102" style="fill:#fff;fill-rule:nonzero;"/><path d="M164.921,18.327c0,0 2.812,-1.921 4.184,-2.562c0,0 0.139,-0.374 0,-0.886c0,0 -2.508,1.324 -4.471,2.663l-0.305,0.688c0.001,0.001 -0.156,0.728 0.592,0.097m0.073,8.298l-1.047,-0.754c-0.611,-0.45 -0.682,-0.056 -0.682,-0.056l-0.516,0.911c-0.316,0.735 -0.641,0.193 -0.641,0.193l-1.029,-0.66c-0.461,-0.477 -0.598,-0.039 -0.598,-0.039l-0.568,1.121c-0.342,0.485 0.096,0.672 0.096,0.672c0.365,0.144 0.963,0.658 0.963,0.658c0.4,0.423 0.635,0.104 0.635,0.104c0.443,-0.399 0.676,-1.163 0.676,-1.163c0.209,-0.556 1.412,0.623 1.412,0.623c0.617,0.423 0.682,0.135 0.682,0.135l0.576,-0.886c0.406,-0.672 0.041,-0.859 0.041,-0.859m11,-16.661c0,0 0.143,0 0.334,0.383c0,0 0.359,-0.104 0.516,-0.447c0.227,-0.462 -0.305,-0.883 -0.305,-0.883c0.424,-0.784 0.096,-2.144 0.096,-2.144c-0.156,-1.953 -1.928,0.441 -1.928,0.441c-1.143,1.158 0.783,2.159 0.783,2.159c0,0 0.455,0.022 -0.07,0.503c0,0 -3.824,3.061 -4.357,3.5c-0.001,0 3.345,-1.553 4.931,-3.512m-0.731,-2.11c0,0 -0.359,-0.383 0.371,-0.673c0,0 0.467,-0.236 0.406,1.271l-0.777,-0.598l0,0Z" style="fill:#fff;fill-rule:nonzero;"/><path d="M162.492,20.759c0,0 0.664,0.052 1.168,0.591c0,0 -0.539,0.944 -2.789,1.953c0,0 -5.045,3.036 -8.385,2.374c0,0 -6.332,-1.348 -2.957,-9.219c0,0 0.684,-1.208 0.193,-1.282c0,0 -0.426,-0.033 -0.857,1.4c0,0 -2.824,6.812 0.391,9.723c0,0 2.729,2.923 6.904,1.13c0,0 5.213,-2.203 7.105,-3.744c0,0 2.932,-4.547 -1.125,-5.111c0,0 2.59,-1.906 1.082,-5.218c0,0 -1.43,-1.961 -2.496,-2.585c0,0 -2.369,-1.824 -2.59,-2.538c0,0 0.43,-0.081 1.232,0.31c0,0 0.67,0.012 -0.023,-0.497l-2.609,-1.759c0,0 -0.576,-0.336 0.27,-0.676c0,0 6.031,-2.73 10.711,-3.689c0,0 2.992,-0.518 2.166,1.058c0,0 -1.268,2.056 -1.771,3.771c0,0 -0.328,1.119 0.402,0c0,0 1.568,-3.579 2.154,-4.412c0,0 0.861,-1.752 -0.586,-2.243c0,0 -1.023,-0.272 -2.67,0.107c0,0 -4.482,0.748 -10.736,3.731c0,0 -1.867,2.364 -0.719,3.935c0,0 1.145,1.269 1.664,1.964c0,0 2.053,2.129 2.836,2.662c0,0 3.107,2.298 2.473,3.452c0,0 -0.951,1.213 -4.057,2.38c0,0 -0.295,0 -0.449,1.284c0,0 -0.025,0.631 1.119,0.729l2.949,0.419Zm-8.826,-18.496c0.383,0.199 1.287,0.892 1.287,0.892c0.473,0.404 0.914,-0.42 0.914,-0.42c0.754,-1.053 0.156,-1.434 0.156,-1.434l-1.484,-0.9c-0.305,-0.154 -0.383,0.254 -0.383,0.254c-0.899,1.295 -0.49,1.608 -0.49,1.608" style="fill:#fff;fill-rule:nonzero;"/><path d="M153.001,13.929c0,0 0.467,-0.346 1.256,-0.333l1.012,0.111l-2.334,1.981c0,0 1.562,-0.656 2.369,-0.778c0,0 3.131,-2.895 1.234,-3.042l-2.418,-0.025c0,0 -0.6,-0.126 -0.945,0.552c0,-0.001 -1.275,1.923 -0.174,1.534m2.166,6.666c0,0 0.156,-2.137 -1.012,-1.407c0,0 -0.969,0.901 -0.688,1.447c0,0 0.09,0.173 0.328,-0.067c0,0 0.893,-0.599 0.49,0.425c0,0 -0.777,1.918 -1.854,2.964c0.002,0 2.168,-1.488 2.736,-3.362m-6.876,-10.502c0,0 -0.568,1.582 -1.203,1.225c0,0 -1.059,-1.252 -0.395,-3.939c0,0 1.592,-3.733 1.783,-4.517l1.789,-0.757c0,0 0.869,-0.807 0.275,-1.631c0,0 -13.363,6.49 -14.692,7.584c0,0 -0.419,0.462 -0.412,1.294c0,0 0.227,0.284 0.574,-0.154c0,0 6.654,-4.008 11.766,-5.959c0,0 0.07,0.319 -0.479,1.161c0,0 -2.041,3.754 -1.557,6.792c0,0 0.197,3.102 1.652,2.002c0,0 1.221,-0.853 1.244,-2.973c0.002,0.001 -0.213,-0.508 -0.345,-0.128" style="fill:#fff;fill-rule:nonzero;"/><path d="M140.319,13.084c0,0 -0.036,0.433 0.574,-0.199c0,0 2.113,-2.62 1.06,-3.335c0,0 -0.562,-0.707 -1.196,0.467c0,0 -0.503,0.649 0.071,0.582c0,0 0.802,-0.594 0.67,0.354c0,0.001 -0.419,1.35 -1.179,2.131m-3.327,-10.268c0,0 0.802,0.304 1.358,0.178c0,0 0.706,0.619 1.018,2.298c0,0 0.976,-0.956 0.461,-3.64c0,0 0.227,-1.661 1.358,0.539c0,0 0.442,-1.485 -0.593,-2.07c0,0 -1.305,-0.666 -1.113,1.755c0,0 0.114,1.368 0,1.921c0,0 -1.143,-2.965 -2.675,-2.392c0.001,-0.001 -0.55,1.157 0.186,1.411m-0.419,12.751c-0.784,1.351 -0.113,2.158 -0.113,2.158c0.987,0.757 1.454,-0.76 1.454,-0.76c0.209,-0.926 -0.204,-0.47 -0.204,-0.47c-0.144,0.522 -0.664,0.415 -0.664,0.415c-0.813,-0.769 0.772,-3.35 0.772,-3.35c-0.395,-0.138 -1.245,2.007 -1.245,2.007m-3.549,10.746c-0.12,0.5 -0.604,0.401 -0.604,0.401c-0.712,-0.763 0.676,-3.325 0.676,-3.325c-0.322,-0.17 -1.089,1.965 -1.089,1.965c-0.676,1.372 -0.09,2.172 -0.09,2.172c0.88,0.76 1.281,-0.763 1.281,-0.763c0.18,-0.941 -0.174,-0.45 -0.174,-0.45" style="fill:#fff;fill-rule:nonzero;"/><path d="M144.814,16.087c-1.526,-1.749 -3.112,1.49 -3.112,1.49c-0.515,-0.064 -0.671,0.361 -0.671,0.361c-0.186,0.696 -0.688,1.716 -0.688,1.716c-2.502,2.927 -5.069,0.693 -5.069,0.693c-1.562,-1.158 -1.55,-11.104 -1.55,-11.104c-0.174,-3.403 -0.928,-8.04 -0.928,-8.04c-0.065,-0.956 -0.395,-0.526 -0.395,-0.526l-0.659,1.544c0.15,0.242 0.378,2.09 0.378,2.09c0.808,2.705 0.771,10.445 1.316,14.748c0.544,4.333 4.081,4.09 4.081,4.09c2.418,0.083 3.585,-3.386 3.585,-3.386c0.85,0.913 3.166,1.514 3.166,1.514c0.664,0.205 1.348,-0.19 1.348,-0.19l0.568,-1.514c0,-0.067 0,-0.083 -0.031,-0.138c-0.173,-1.108 -1.339,-3.348 -1.339,-3.348m-2.669,2.145c0.467,-0.839 1.335,-0.603 1.335,-0.603c0.838,0.419 0.862,1.495 0.862,1.495l-2.197,-0.892Zm1.167,5.503c0,0 -0.144,-0.235 -0.293,0.087c0,0 -0.335,1.36 -2.029,2.087c0,0 -2.896,1.413 -4.003,1.767c0,0 1.711,-0.333 2.22,-0.211c0,0 2.424,-1.103 3.064,-1.541c0,0 0.604,-0.742 0.676,-1.122c0,0 0.359,-0.175 1.174,0.465c0,0 0.514,0.292 0.76,-0.275c0,0 0.311,-0.681 -0.389,-2.003c0,-0.001 -0.588,-0.59 -1.18,0.746m0.826,0.555l-0.545,-0.275c0.699,-0.601 0.545,0.275 0.545,0.275m-12.676,-7.72l-1.502,-2.623l0.635,-0.052c0,0 0.042,-0.334 -0.646,-0.854c0,0 -1.209,-2.048 -1.376,-1.192c0,0 -0.425,1.822 0,2.129c0,0 0.197,0.166 0.448,0.839c0,0 2.334,3.199 1.4,4.153c0,0 -1.293,1.486 -2.37,2.047c0,0 -8.833,5.588 -12.31,6.728c0,0 3.782,-1.018 5.152,-0.962c0,0 1.7,-0.178 2.436,-0.757l6.416,-4.219c0,0 2.723,-2.415 1.717,-5.237m-0.664,-9.23c0,0 0.342,-0.094 0.461,-0.613c0,0 0.329,-1.004 -0.359,-0.352l-6.308,3.336c0,0 -0.347,0.689 -0.299,1.017l6.505,-3.388Zm-3.178,-3.05c0.162,-0.678 -0.144,-0.576 -0.299,-0.113c-0.138,0.481 -0.449,0.16 -0.449,0.16c-0.963,-1.166 0.748,-3.481 0.748,-3.481c0.239,-0.839 -0.437,-0.061 -0.437,-0.061c-1.837,2.964 -0.706,4.683 -0.706,4.683c1,0.396 1.143,-1.188 1.143,-1.188" style="fill:#fff;fill-rule:nonzero;"/><path d="M121.815,16.884c0,0 0.928,4.719 0.389,5.99c0,0 1.425,-2.28 0.658,-7.35l-1.244,-10.926c0,0 0.748,0.737 0.945,1.173c0,0 0.228,-0.561 -0.306,-1.48c0,0 -1.298,-4.47 -1.682,-3.836c0,0 -0.945,1.568 -0.448,1.93l1.688,14.499Z" style="fill:#fff;fill-rule:nonzero;"/></g><path d="M30.36,64.935l-12.687,0l71.364,36.027c1.097,-1.532 2.105,-3.127 3.019,-4.775l-61.696,-31.252Z" style="fill:#fff;fill-rule:nonzero;"/><path d="M67.804,64.935l-61.69,31.25c0.914,1.648 1.922,3.242 3.02,4.774l71.358,-36.024l-12.688,0Z" style="fill:#fff;fill-rule:nonzero;"/><path d="M70.932,78.64l0.574,-2.938l7.876,-2.447l3.765,0.867l5.374,3.932l-0.287,0.635l1.346,3.276l-3.147,3.426l-3.944,-5.619l-3.351,-1.472l-2.011,1.831l-1.796,0.729c0,0 0.293,0.961 -0.521,1.281l-2.418,-1.029l4.13,6.158c0,0 -5.195,-4.432 -16.123,2.047c0,0 -5.313,4.284 -12.022,6.08c0,0 -5.057,0.915 -10.652,5.422c-5.607,4.488 -14.776,6.367 -20.551,8.723c0,0 9.09,-7.215 12.399,-8.576c0,0 3.603,-1.657 7.894,-4.88c5.201,-3.872 8.241,-4.687 11.557,-5.575c0,0 4.584,-1.395 9.024,-5.706c0,0 4.159,-2.307 5.015,-3.172c0,0 1.49,-1.816 2.711,-4.781l0.401,1.643c0,0 2.598,-2.846 1.855,-4.68l2.902,4.825Z" style="fill:#fff;fill-rule:nonzero;"/><path d="M27.232,78.64l-0.574,-2.938l-7.876,-2.447l-3.765,0.867l-5.374,3.932l0.287,0.635l-1.346,3.276l3.147,3.426l3.944,-5.619l3.351,-1.472l2.011,1.831l1.796,0.729c0,0 -0.293,0.961 0.521,1.281l2.418,-1.029l-4.13,6.158c0,0 5.195,-4.432 16.123,2.047c0,0 5.313,4.284 12.022,6.08c0,0 5.057,0.915 10.652,5.422c5.607,4.488 14.776,6.367 20.551,8.723c0,0 -9.09,-7.215 -12.399,-8.576c0,0 -3.603,-1.657 -7.894,-4.88c-5.201,-3.872 -8.241,-4.687 -11.557,-5.575c0,0 -4.584,-1.395 -9.024,-5.706c0,0 -4.159,-2.307 -5.015,-3.172c0,0 -1.49,-1.816 -2.711,-4.781l-0.401,1.643c0,0 -2.598,-2.846 -1.855,-4.68l-2.902,4.825l0,0Z" style="fill:#fff;fill-rule:nonzero;"/></svg>